<svg width="344" height="344" viewBox="0 0 344 344" fill="none" xmlns="http://www.w3.org/2000/svg">
<path d="M271.894 161.192L160.814 272.272L145.41 256.869L170.414 118.941L169.383 117.91L87.9175 199.376L71.1578 182.616L182.238 71.5363L197.75 87.0485L172.692 225.139L173.722 226.17L255.297 144.595L271.894 161.192Z" fill="#1E1E1E"/>
<path d="M161.192 72.2088L272.272 183.289L256.869 198.692L118.941 173.689L117.91 174.719L199.376 256.185L182.616 272.945L71.5363 161.865L87.0485 146.353L225.139 171.411L226.17 170.38L144.595 88.8057L161.192 72.2088Z" fill="#F24822"/>
<path d="M113.091 309V285.727H120.602C122.254 285.727 123.633 286.027 124.739 286.625C125.852 287.216 126.689 288.038 127.25 289.091C127.818 290.136 128.102 291.337 128.102 292.693C128.102 294.049 127.818 295.246 127.25 296.284C126.689 297.322 125.856 298.133 124.75 298.716C123.644 299.299 122.273 299.591 120.636 299.591H114.239V297.648H120.58C121.792 297.648 122.799 297.447 123.602 297.045C124.413 296.644 125.015 296.072 125.409 295.33C125.811 294.587 126.011 293.708 126.011 292.693C126.011 291.678 125.811 290.792 125.409 290.034C125.008 289.269 124.402 288.678 123.591 288.261C122.788 287.845 121.773 287.636 120.545 287.636H115.216V309H113.091ZM123.352 298.5L129.08 309H126.625L120.955 298.5H123.352ZM139.023 309.364C137.394 309.364 135.985 308.985 134.796 308.227C133.607 307.462 132.686 306.405 132.035 305.057C131.391 303.701 131.069 302.14 131.069 300.375C131.069 298.617 131.391 297.057 132.035 295.693C132.686 294.322 133.584 293.25 134.728 292.477C135.879 291.697 137.209 291.307 138.716 291.307C139.663 291.307 140.576 291.481 141.455 291.83C142.334 292.17 143.122 292.697 143.819 293.409C144.523 294.114 145.08 295.004 145.489 296.08C145.898 297.148 146.103 298.413 146.103 299.875V300.875H132.466V299.091H144.035C144.035 297.97 143.807 296.962 143.353 296.068C142.906 295.167 142.281 294.455 141.478 293.932C140.682 293.409 139.762 293.148 138.716 293.148C137.61 293.148 136.637 293.443 135.796 294.034C134.955 294.625 134.296 295.405 133.819 296.375C133.349 297.345 133.11 298.405 133.103 299.557V300.625C133.103 302.011 133.341 303.223 133.819 304.261C134.304 305.292 134.989 306.091 135.876 306.659C136.762 307.227 137.811 307.511 139.023 307.511C139.849 307.511 140.573 307.383 141.194 307.125C141.823 306.867 142.349 306.523 142.773 306.091C143.205 305.652 143.531 305.17 143.751 304.648L145.671 305.273C145.406 306.008 144.97 306.686 144.364 307.307C143.766 307.928 143.016 308.428 142.114 308.807C141.22 309.178 140.19 309.364 139.023 309.364ZM156.515 315.909C155.326 315.909 154.284 315.754 153.39 315.443C152.496 315.14 151.743 314.723 151.129 314.193C150.515 313.663 150.038 313.068 149.697 312.409L151.356 311.318C151.606 311.758 151.94 312.189 152.356 312.614C152.78 313.038 153.33 313.39 154.004 313.67C154.686 313.951 155.523 314.091 156.515 314.091C158.061 314.091 159.307 313.705 160.254 312.932C161.208 312.159 161.686 310.958 161.686 309.33V305.398H161.504C161.269 305.928 160.932 306.458 160.493 306.989C160.053 307.511 159.477 307.947 158.765 308.295C158.061 308.644 157.186 308.818 156.14 308.818C154.746 308.818 153.508 308.473 152.424 307.784C151.349 307.095 150.5 306.11 149.879 304.83C149.265 303.542 148.958 302.008 148.958 300.227C148.958 298.462 149.258 296.909 149.856 295.568C150.462 294.227 151.307 293.182 152.39 292.432C153.474 291.682 154.735 291.307 156.174 291.307C157.243 291.307 158.129 291.496 158.833 291.875C159.538 292.246 160.102 292.708 160.527 293.261C160.958 293.814 161.296 294.352 161.538 294.875H161.743V291.545H163.72V309.455C163.72 310.932 163.405 312.148 162.777 313.102C162.148 314.057 161.292 314.761 160.208 315.216C159.125 315.678 157.894 315.909 156.515 315.909ZM156.379 306.966C157.5 306.966 158.458 306.697 159.254 306.159C160.049 305.614 160.659 304.833 161.083 303.818C161.508 302.803 161.72 301.595 161.72 300.193C161.72 298.83 161.512 297.621 161.095 296.568C160.678 295.508 160.072 294.674 159.277 294.068C158.489 293.455 157.523 293.148 156.379 293.148C155.212 293.148 154.227 293.462 153.424 294.091C152.621 294.72 152.015 295.568 151.606 296.636C151.197 297.697 150.993 298.883 150.993 300.193C150.993 301.527 151.201 302.705 151.618 303.727C152.034 304.742 152.644 305.538 153.447 306.114C154.25 306.682 155.227 306.966 156.379 306.966ZM168.394 309V291.545H170.428V309H168.394ZM169.428 288.545C169.011 288.545 168.655 288.405 168.36 288.125C168.064 287.837 167.916 287.492 167.916 287.091C167.916 286.689 168.064 286.348 168.36 286.068C168.655 285.78 169.011 285.636 169.428 285.636C169.844 285.636 170.201 285.78 170.496 286.068C170.791 286.348 170.939 286.689 170.939 287.091C170.939 287.492 170.791 287.837 170.496 288.125C170.201 288.405 169.844 288.545 169.428 288.545ZM186.8 295.375L184.948 295.898C184.766 295.375 184.509 294.902 184.175 294.477C183.842 294.053 183.407 293.716 182.869 293.466C182.338 293.216 181.679 293.091 180.891 293.091C179.71 293.091 178.74 293.371 177.982 293.932C177.225 294.492 176.846 295.216 176.846 296.102C176.846 296.852 177.104 297.462 177.619 297.932C178.141 298.394 178.944 298.761 180.028 299.034L182.664 299.682C184.126 300.038 185.221 300.602 185.948 301.375C186.683 302.148 187.05 303.117 187.05 304.284C187.05 305.269 186.778 306.144 186.232 306.909C185.687 307.674 184.925 308.277 183.948 308.716C182.979 309.148 181.854 309.364 180.573 309.364C178.869 309.364 177.463 308.981 176.357 308.216C175.251 307.443 174.543 306.33 174.232 304.875L176.175 304.398C176.425 305.436 176.914 306.22 177.641 306.75C178.376 307.28 179.342 307.545 180.539 307.545C181.88 307.545 182.952 307.246 183.755 306.648C184.558 306.042 184.96 305.284 184.96 304.375C184.96 303.67 184.725 303.08 184.255 302.602C183.785 302.117 183.073 301.761 182.119 301.534L179.266 300.852C177.751 300.489 176.63 299.913 175.903 299.125C175.175 298.337 174.812 297.36 174.812 296.193C174.812 295.231 175.073 294.386 175.596 293.659C176.119 292.924 176.838 292.348 177.755 291.932C178.672 291.515 179.717 291.307 180.891 291.307C182.49 291.307 183.766 291.67 184.721 292.398C185.683 293.117 186.376 294.11 186.8 295.375ZM197.65 291.545V293.307H189.321V291.545H197.65ZM191.923 287.364H193.957V304.443C193.957 305.17 194.082 305.742 194.332 306.159C194.582 306.568 194.908 306.86 195.31 307.034C195.711 307.201 196.139 307.284 196.594 307.284C196.859 307.284 197.086 307.269 197.275 307.239C197.465 307.201 197.632 307.163 197.775 307.125L198.207 308.955C198.01 309.03 197.768 309.098 197.48 309.159C197.192 309.227 196.836 309.261 196.412 309.261C195.669 309.261 194.953 309.098 194.264 308.773C193.582 308.447 193.022 307.962 192.582 307.318C192.143 306.674 191.923 305.875 191.923 304.92V287.364ZM201.54 309V291.545H203.506V294.227H203.654C204.002 293.348 204.608 292.64 205.472 292.102C206.343 291.557 207.328 291.284 208.427 291.284C208.593 291.284 208.779 291.288 208.983 291.295C209.188 291.303 209.358 291.311 209.495 291.318V293.375C209.404 293.36 209.245 293.337 209.017 293.307C208.79 293.277 208.544 293.261 208.279 293.261C207.37 293.261 206.559 293.455 205.847 293.841C205.142 294.22 204.586 294.746 204.177 295.42C203.767 296.095 203.563 296.864 203.563 297.727V309H201.54ZM218.495 309.364C216.988 309.364 215.654 308.981 214.495 308.216C213.344 307.451 212.442 306.394 211.791 305.045C211.139 303.689 210.813 302.125 210.813 300.352C210.813 298.564 211.139 296.992 211.791 295.636C212.442 294.273 213.344 293.212 214.495 292.455C215.654 291.689 216.988 291.307 218.495 291.307C220.003 291.307 221.332 291.689 222.484 292.455C223.635 293.22 224.537 294.28 225.188 295.636C225.848 296.992 226.177 298.564 226.177 300.352C226.177 302.125 225.851 303.689 225.2 305.045C224.548 306.394 223.643 307.451 222.484 308.216C221.332 308.981 220.003 309.364 218.495 309.364ZM218.495 307.511C219.707 307.511 220.734 307.186 221.575 306.534C222.416 305.883 223.052 305.015 223.484 303.932C223.923 302.848 224.143 301.655 224.143 300.352C224.143 299.049 223.923 297.852 223.484 296.761C223.052 295.67 222.416 294.795 221.575 294.136C220.734 293.477 219.707 293.148 218.495 293.148C217.291 293.148 216.264 293.477 215.416 294.136C214.575 294.795 213.935 295.67 213.495 296.761C213.063 297.852 212.848 299.049 212.848 300.352C212.848 301.655 213.063 302.848 213.495 303.932C213.935 305.015 214.575 305.883 215.416 306.534C216.257 307.186 217.283 307.511 218.495 307.511Z" fill="#1E1E1E"/>
</svg>
