<svg width="344" height="344" viewBox="0 0 344 344" fill="none" xmlns="http://www.w3.org/2000/svg">
<path d="M271.894 161.192L160.814 272.272L145.41 256.869L170.414 118.941L169.383 117.91L87.9175 199.376L71.1578 182.616L182.238 71.5363L197.75 87.0485L172.692 225.139L173.722 226.17L255.297 144.595L271.894 161.192Z" fill="#1E1E1E"/>
<path d="M161.192 72.2088L272.272 183.289L256.869 198.692L118.941 173.689L117.91 174.719L199.376 256.185L182.616 272.945L71.5363 161.865L87.0485 146.353L225.139 171.411L226.17 170.38L144.595 88.8057L161.192 72.2088Z" fill="#F24822"/>
<path d="M129.091 309V285.727H131.216V307.091H142.307V309H129.091ZM152.751 309.364C151.243 309.364 149.91 308.981 148.751 308.216C147.599 307.451 146.698 306.394 146.046 305.045C145.394 303.689 145.069 302.125 145.069 300.352C145.069 298.564 145.394 296.992 146.046 295.636C146.698 294.273 147.599 293.212 148.751 292.455C149.91 291.689 151.243 291.307 152.751 291.307C154.258 291.307 155.588 291.689 156.739 292.455C157.891 293.22 158.792 294.28 159.444 295.636C160.103 296.992 160.432 298.564 160.432 300.352C160.432 302.125 160.107 303.689 159.455 305.045C158.804 306.394 157.898 307.451 156.739 308.216C155.588 308.981 154.258 309.364 152.751 309.364ZM152.751 307.511C153.963 307.511 154.989 307.186 155.83 306.534C156.671 305.883 157.307 305.015 157.739 303.932C158.179 302.848 158.398 301.655 158.398 300.352C158.398 299.049 158.179 297.852 157.739 296.761C157.307 295.67 156.671 294.795 155.83 294.136C154.989 293.477 153.963 293.148 152.751 293.148C151.546 293.148 150.519 293.477 149.671 294.136C148.83 294.795 148.19 295.67 147.751 296.761C147.319 297.852 147.103 299.049 147.103 300.352C147.103 301.655 147.319 302.848 147.751 303.932C148.19 305.015 148.83 305.883 149.671 306.534C150.512 307.186 151.538 307.511 152.751 307.511ZM170.828 315.909C169.638 315.909 168.597 315.754 167.703 315.443C166.809 315.14 166.055 314.723 165.441 314.193C164.828 313.663 164.351 313.068 164.01 312.409L165.669 311.318C165.919 311.758 166.252 312.189 166.669 312.614C167.093 313.038 167.642 313.39 168.316 313.67C168.998 313.951 169.835 314.091 170.828 314.091C172.373 314.091 173.619 313.705 174.566 312.932C175.521 312.159 175.998 310.958 175.998 309.33V305.398H175.816C175.582 305.928 175.244 306.458 174.805 306.989C174.366 307.511 173.79 307.947 173.078 308.295C172.373 308.644 171.498 308.818 170.453 308.818C169.059 308.818 167.82 308.473 166.737 307.784C165.661 307.095 164.813 306.11 164.191 304.83C163.578 303.542 163.271 302.008 163.271 300.227C163.271 298.462 163.57 296.909 164.169 295.568C164.775 294.227 165.619 293.182 166.703 292.432C167.786 291.682 169.047 291.307 170.487 291.307C171.555 291.307 172.441 291.496 173.146 291.875C173.851 292.246 174.415 292.708 174.839 293.261C175.271 293.814 175.608 294.352 175.851 294.875H176.055V291.545H178.032V309.455C178.032 310.932 177.718 312.148 177.089 313.102C176.46 314.057 175.604 314.761 174.521 315.216C173.438 315.678 172.207 315.909 170.828 315.909ZM170.691 306.966C171.813 306.966 172.771 306.697 173.566 306.159C174.362 305.614 174.972 304.833 175.396 303.818C175.82 302.803 176.032 301.595 176.032 300.193C176.032 298.83 175.824 297.621 175.407 296.568C174.991 295.508 174.385 294.674 173.589 294.068C172.801 293.455 171.835 293.148 170.691 293.148C169.525 293.148 168.54 293.462 167.737 294.091C166.934 294.72 166.328 295.568 165.919 296.636C165.51 297.697 165.305 298.883 165.305 300.193C165.305 301.527 165.513 302.705 165.93 303.727C166.347 304.742 166.957 305.538 167.76 306.114C168.563 306.682 169.54 306.966 170.691 306.966ZM182.706 309V291.545H184.74V309H182.706ZM183.74 288.545C183.324 288.545 182.968 288.405 182.672 288.125C182.377 287.837 182.229 287.492 182.229 287.091C182.229 286.689 182.377 286.348 182.672 286.068C182.968 285.78 183.324 285.636 183.74 285.636C184.157 285.636 184.513 285.78 184.808 286.068C185.104 286.348 185.252 286.689 185.252 287.091C185.252 287.492 185.104 287.837 184.808 288.125C184.513 288.405 184.157 288.545 183.74 288.545ZM191.408 298.091V309H189.386V291.545H191.352V294.284H191.533C191.943 293.39 192.579 292.674 193.443 292.136C194.314 291.591 195.389 291.318 196.67 291.318C197.844 291.318 198.874 291.564 199.761 292.057C200.655 292.542 201.348 293.258 201.84 294.205C202.34 295.152 202.59 296.314 202.59 297.693V309H200.568V297.818C200.568 296.386 200.166 295.254 199.363 294.42C198.568 293.587 197.499 293.17 196.158 293.17C195.242 293.17 194.427 293.367 193.715 293.761C193.003 294.155 192.439 294.723 192.022 295.466C191.613 296.201 191.408 297.076 191.408 298.091Z" fill="#1E1E1E"/>
</svg>
