<svg width="303" height="104" viewBox="0 0 303 104" fill="none" xmlns="http://www.w3.org/2000/svg">
<path d="M47.4726 21.0525L80.3852 53.9651L75.8211 58.5292L34.9536 51.1206L34.6482 51.426L58.7863 75.564L53.8205 80.5299L20.9079 47.6172L25.5041 43.0211L66.4198 50.4457L66.7252 50.1403L42.555 25.9701L47.4726 21.0525Z" fill="#F24822"/>
<path d="M80.9648 48.6664L48.0522 81.579L43.4881 77.015L50.8967 36.1474L50.5914 35.8421L26.4533 59.9801L21.4875 55.0143L54.4001 22.1017L58.9963 26.6979L51.5717 67.6137L51.877 67.919L76.0472 43.7488L80.9648 48.6664Z" fill="#1E1E1E"/>
<path d="M117.708 42.3506V59.8052H114.52L106.927 48.8194H106.799V59.8052H103.108V42.3506H106.347L113.881 53.3279H114.034V42.3506H117.708ZM128.317 49.6376V52.5182H120.357V49.6376H128.317ZM137.138 59.8052H130.951V42.3506H137.189C138.945 42.3506 140.456 42.7001 141.724 43.3989C142.991 44.0921 143.965 45.0893 144.647 46.3904C145.334 47.6915 145.678 49.2484 145.678 51.0609C145.678 52.879 145.334 54.4415 144.647 55.7484C143.965 57.0552 142.985 58.058 141.706 58.7569C140.434 59.4557 138.911 59.8052 137.138 59.8052ZM134.641 56.6432H136.985C138.076 56.6432 138.993 56.4501 139.738 56.0637C140.488 55.6717 141.05 55.0665 141.425 54.2484C141.806 53.4245 141.996 52.362 141.996 51.0609C141.996 49.7711 141.806 48.7171 141.425 47.8989C141.05 47.0807 140.491 46.4785 139.746 46.0921C139.002 45.7057 138.084 45.5126 136.993 45.5126H134.641V56.6432ZM149.908 59.8052H145.953L151.979 42.3506H156.735L162.752 59.8052H158.797L154.425 46.3393H154.289L149.908 59.8052ZM149.661 52.9444H159.002V55.8251H149.661V52.9444ZM161.527 45.3932V42.3506H175.862V45.3932H170.518V59.8052H166.871V45.3932H161.527ZM178.571 59.8052H174.616L180.642 42.3506H185.397L191.414 59.8052H187.46L183.088 46.3393H182.951L178.571 59.8052ZM178.323 52.9444H187.664V55.8251H178.323V52.9444ZM207.483 47.3705C207.414 46.683 207.122 46.1489 206.605 45.7682C206.088 45.3876 205.386 45.1972 204.5 45.1972C203.897 45.1972 203.389 45.2824 202.974 45.4529C202.559 45.6177 202.241 45.8478 202.02 46.1432C201.804 46.4387 201.696 46.7739 201.696 47.1489C201.684 47.4614 201.75 47.7342 201.892 47.9671C202.039 48.2001 202.241 48.4018 202.497 48.5722C202.753 48.737 203.048 48.8819 203.383 49.0069C203.718 49.1262 204.076 49.2285 204.457 49.3137L206.025 49.6887C206.787 49.8592 207.486 50.0864 208.122 50.3705C208.758 50.6546 209.309 51.004 209.775 51.4188C210.241 51.8336 210.602 52.3222 210.858 52.8847C211.119 53.4472 211.253 54.0921 211.258 54.8194C211.253 55.8876 210.98 56.8137 210.44 57.5978C209.906 58.3762 209.133 58.9813 208.122 59.4131C207.116 59.8393 205.903 60.0523 204.483 60.0523C203.074 60.0523 201.846 59.8364 200.801 59.4046C199.761 58.9728 198.949 58.3336 198.363 57.487C197.784 56.6347 197.48 55.5807 197.451 54.3251H201.022C201.062 54.9103 201.23 55.3989 201.525 55.791C201.826 56.1773 202.227 56.4699 202.727 56.6688C203.233 56.862 203.804 56.9586 204.44 56.9586C205.065 56.9586 205.608 56.8677 206.068 56.6859C206.534 56.504 206.895 56.2512 207.15 55.9273C207.406 55.6035 207.534 55.2313 207.534 54.8109C207.534 54.4188 207.417 54.0893 207.184 53.8222C206.957 53.5552 206.622 53.3279 206.179 53.1404C205.741 52.9529 205.204 52.7824 204.568 52.629L202.667 52.1518C201.196 51.7938 200.034 51.2342 199.182 50.4728C198.329 49.7114 197.906 48.6859 197.912 47.3961C197.906 46.3393 198.187 45.416 198.755 44.6262C199.329 43.8364 200.116 43.2199 201.116 42.7768C202.116 42.3336 203.253 42.112 204.525 42.112C205.821 42.112 206.951 42.3336 207.917 42.7768C208.889 43.2199 209.645 43.8364 210.184 44.6262C210.724 45.416 211.003 46.3307 211.02 47.3705H207.483ZM216.903 42.3506V59.8052H213.212V42.3506H216.903ZM228.88 47.3705C228.812 46.683 228.519 46.1489 228.002 45.7682C227.485 45.3876 226.783 45.1972 225.897 45.1972C225.295 45.1972 224.786 45.2824 224.371 45.4529C223.956 45.6177 223.638 45.8478 223.417 46.1432C223.201 46.4387 223.093 46.7739 223.093 47.1489C223.081 47.4614 223.147 47.7342 223.289 47.9671C223.437 48.2001 223.638 48.4018 223.894 48.5722C224.15 48.737 224.445 48.8819 224.78 49.0069C225.116 49.1262 225.474 49.2285 225.854 49.3137L227.422 49.6887C228.184 49.8592 228.883 50.0864 229.519 50.3705C230.155 50.6546 230.706 51.004 231.172 51.4188C231.638 51.8336 231.999 52.3222 232.255 52.8847C232.516 53.4472 232.65 54.0921 232.655 54.8194C232.65 55.8876 232.377 56.8137 231.837 57.5978C231.303 58.3762 230.53 58.9813 229.519 59.4131C228.513 59.8393 227.3 60.0523 225.88 60.0523C224.471 60.0523 223.243 59.8364 222.198 59.4046C221.158 58.9728 220.346 58.3336 219.76 57.487C219.181 56.6347 218.877 55.5807 218.849 54.3251H222.42C222.459 54.9103 222.627 55.3989 222.922 55.791C223.224 56.1773 223.624 56.4699 224.124 56.6688C224.63 56.862 225.201 56.9586 225.837 56.9586C226.462 56.9586 227.005 56.8677 227.465 56.6859C227.931 56.504 228.292 56.2512 228.547 55.9273C228.803 55.6035 228.931 55.2313 228.931 54.8109C228.931 54.4188 228.814 54.0893 228.581 53.8222C228.354 53.5552 228.019 53.3279 227.576 53.1404C227.138 52.9529 226.601 52.7824 225.965 52.629L224.064 52.1518C222.593 51.7938 221.431 51.2342 220.579 50.4728C219.726 49.7114 219.303 48.6859 219.309 47.3961C219.303 46.3393 219.584 45.416 220.153 44.6262C220.726 43.8364 221.513 43.2199 222.513 42.7768C223.513 42.3336 224.65 42.112 225.922 42.112C227.218 42.112 228.349 42.3336 229.314 42.7768C230.286 43.2199 231.042 43.8364 231.581 44.6262C232.121 45.416 232.4 46.3307 232.417 47.3705H228.88ZM233.945 45.3932V42.3506H248.28V45.3932H242.936V59.8052H239.289V45.3932H233.945ZM250.113 59.8052V42.3506H261.874V45.3932H253.803V49.5523H261.269V52.5949H253.803V56.7626H261.908V59.8052H250.113ZM264.28 42.3506H268.831L273.638 54.0779H273.843L278.649 42.3506H283.201V59.8052H279.621V48.4444H279.476L274.959 59.7199H272.522L268.005 48.4018H267.86V59.8052H264.28V42.3506ZM288.722 59.8052H284.767L290.793 42.3506H295.548L301.565 59.8052H297.611L293.239 46.3393H293.102L288.722 59.8052ZM288.474 52.9444H297.815V55.8251H288.474V52.9444Z" fill="#1E1E1E"/>
</svg>
